<?xml version="1.0" encoding="UTF-8" standalone="no"?>
<!-- Created with Inkscape (http://www.inkscape.org/) -->

<svg
   version="1.1"
   id="svg1"
   width="111.79428"
   height="39.122345"
   viewBox="0 0 111.79428 39.122345"
   sodipodi:docname="dfg_logo_schriftzug_blau_foerderung_4c.eps"
   inkscape:version="1.4 (e7c3feb100, 2024-10-09)"
   xmlns:inkscape="http://www.inkscape.org/namespaces/inkscape"
   xmlns:sodipodi="http://sodipodi.sourceforge.net/DTD/sodipodi-0.dtd"
   xmlns="http://www.w3.org/2000/svg"
   xmlns:svg="http://www.w3.org/2000/svg">
  <defs
     id="defs1" />
  <sodipodi:namedview
     id="namedview1"
     pagecolor="#ffffff"
     bordercolor="#000000"
     borderopacity="0.25"
     inkscape:showpageshadow="2"
     inkscape:pageopacity="0.0"
     inkscape:pagecheckerboard="0"
     inkscape:deskcolor="#d1d1d1"
     inkscape:zoom="1.9010531"
     inkscape:cx="193.05089"
     inkscape:cy="36.295671"
     inkscape:window-width="1920"
     inkscape:window-height="1163"
     inkscape:window-x="0"
     inkscape:window-y="0"
     inkscape:window-maximized="1"
     inkscape:current-layer="g1">
    <inkscape:page
       x="0"
       y="0"
       inkscape:label="1"
       id="page1"
       width="111.79428"
       height="39.122345"
       margin="0"
       bleed="0" />
  </sodipodi:namedview>
  <g
     id="g1"
     inkscape:groupmode="layer"
     inkscape:label="1"
     transform="translate(-5.2083331e-4,-30.463068)">
    <path
       id="path2"
       d="M 5.2083332e-4,68.92292 H 20.064533 c 5.3052,0 9.914666,-1.139587 13.1828,-4.02084 3.268266,-2.88072 5.271999,-7.537013 5.276133,-14.767146 -0.0027,-7.7656 -1.8724,-12.481866 -4.9844,-15.275066 -3.112,-2.795334 -7.567733,-3.733867 -12.884933,-3.7328 v -0.0011 H 5.2083332e-4 v 8.162533 H 13.959333 17.494266 c 2.650533,-0.014 4.462,0.926 5.4864,2.7448 1.026667,1.804667 1.3344,4.3724 1.338667,7.715067 -0.0043,3.230266 -0.285467,5.769333 -1.289067,7.575599 -1.0032,1.816134 -2.8032,2.789027 -5.482933,2.7734 H 13.562 v -13.3791 H 5.2083332e-4 V 68.92292"
       style="fill:#2056ae;fill-opacity:1;fill-rule:nonzero;stroke:none;stroke-width:0.133333" />
    <path
       id="path3"
       d="m 41.468799,68.92292 h 13.5604 V 55.212 H 71.925065 V 46.718267 H 55.029199 V 39.288534 H 71.925065 V 31.126001 H 41.468799 V 68.92292"
       style="fill:#2056ae;fill-opacity:1;fill-rule:nonzero;stroke:none;stroke-width:0.133333" />
    <path
       id="path4"
       d="m 81.263598,35.230268 c -4.006267,3.168666 -6.539067,7.881199 -6.544267,14.241599 0.0052,6.789067 2.442667,11.780213 6.3932,15.113547 3.953067,3.332293 9.455733,4.999999 15.598933,4.999999 5.754136,-0.001 10.299466,-0.58072 15.083336,-2 V 50.145334 H 100.27133 V 60.30312 l -0.2552,0.09896 c -0.968799,0.36928 -2.177066,0.354174 -3.197866,0.358854 -2.971333,0.0083 -5.088533,-1.2344 -6.388,-3.159867 -1.302133,-1.923467 -1.8256,-4.486 -1.828133,-7.190133 -0.0027,-3.595333 1.218667,-6.411467 3.3828,-8.294267 2.162933,-1.8844 5.222933,-2.828133 8.851469,-2.828133 3.71093,0 6.63546,0.834933 8.71626,1.9312 v -9.404133 c -3.4272,-0.836933 -6.03493,-1.35 -12.841196,-1.352533 h -0.0027 c -5.927067,0 -11.437467,1.601466 -15.4452,4.7672"
       style="fill:#2056ae;fill-opacity:1;fill-rule:nonzero;stroke:none;stroke-width:0.133333" />
  </g>
</svg>
