<?xml version="1.0" encoding="UTF-8" standalone="no"?>
<!-- Created with Inkscape (http://www.inkscape.org/) -->

<svg
   version="1.1"
   id="svg1"
   width="338.293"
   height="98.866669"
   viewBox="0 0 338.29299 98.866669"
   xmlns="http://www.w3.org/2000/svg"
   xmlns:svg="http://www.w3.org/2000/svg">
  <defs
     id="defs1" />
  <g
     id="g1">
    <rect
       style="fill:#ffffff;stroke:none;stroke-width:5.7"
       id="rect35"
       width="338.293"
       height="98.866997"
       x="4.6337891e-06"
       y="-0.0001641814" />
    <g
       id="group-R5">
      <path
         id="path2"
         d="m 0,229.133 h 150.48 c 39.79,0 74.364,8.531 98.875,30.152 24.512,21.602 39.532,56.52 39.571,110.75 -0.02,58.242 -14.043,93.613 -37.383,114.559 -23.34,20.969 -56.762,28.008 -96.641,28 v 0.008 H 0 v -61.219 h 104.691 26.508 c 19.879,0.105 33.469,-6.945 41.149,-20.586 7.703,-13.535 10.011,-32.793 10.039,-57.863 -0.028,-24.227 -2.137,-43.27 -9.668,-56.817 -7.52,-13.621 -21.02,-20.918 -41.117,-20.801 H 101.711 V 395.66 H 0 V 229.133"
         style="fill:#2056ae;fill-opacity:1;fill-rule:nonzero;stroke:none"
         transform="matrix(0.13333333,0,0,-0.13333333,0,98.866667)" />
      <path
         id="path3"
         d="M 311.016,229.133 H 412.715 V 331.957 H 539.438 V 395.66 H 412.715 v 55.723 h 126.723 v 61.219 H 311.016 V 229.133"
         style="fill:#2056ae;fill-opacity:1;fill-rule:nonzero;stroke:none"
         transform="matrix(0.13333333,0,0,-0.13333333,0,98.866667)" />
      <path
         id="path4"
         d="m 609.477,481.82 c -30.059,-23.769 -49.043,-59.109 -49.082,-106.816 0.039,-50.918 18.32,-88.348 47.949,-113.356 29.648,-24.976 70.918,-37.5 116.992,-37.5 43.144,0.024 77.246,4.36 113.125,15 v 130.809 h -86.426 v -76.184 l -1.914,-0.742 c -7.266,-2.773 -16.328,-2.656 -23.984,-2.695 -22.285,-0.059 -38.164,9.258 -47.91,23.703 -9.766,14.422 -13.692,33.641 -13.711,53.926 -0.02,26.961 9.14,48.086 25.371,62.207 16.211,14.129 39.16,21.211 66.386,21.211 27.832,0 49.766,-6.262 65.372,-14.485 v 70.528 c -25.704,6.281 -45.274,10.129 -96.309,10.148 h -0.02 c -44.453,0 -85.781,-12.011 -115.839,-35.754"
         style="fill:#2056ae;fill-opacity:1;fill-rule:nonzero;stroke:none"
         transform="matrix(0.13333333,0,0,-0.13333333,0,98.866667)" />
      <path
         id="path5"
         d="m 993.52,417.555 h 8.28 c 30.8,-0.684 46.62,13.984 47.42,43.984 -0.23,15.77 -4.2,26.895 -11.89,33.379 -7.83,6.18 -17.56,9.227 -29.16,9.129 h -14.65 z m -9.903,95.39 h 25.003 c 17.95,-0.195 30.92,-5.019 38.92,-14.453 7.84,-9.484 11.68,-21.992 11.59,-37.512 -0.18,-18.632 -5.65,-32.039 -16.39,-40.203 -10.59,-8.086 -24.41,-12.121 -41.47,-12.121 h -17.653 v 104.289"
         style="fill:#2056ae;fill-opacity:1;fill-rule:nonzero;stroke:none"
         transform="matrix(0.13333333,0,0,-0.13333333,0,98.866667)" />
      <path
         id="path6"
         d="m 1128.19,452.066 c 0,7.012 -1.43,13.125 -4.26,18.36 -2.97,5.293 -7.87,8.027 -14.67,8.222 -6.66,-0.195 -11.91,-2.988 -15.8,-8.359 -3.96,-5.441 -5.94,-11.504 -5.94,-18.223 z m 4.41,-41.035 c -6.91,-2.707 -14.06,-4.101 -21.4,-4.199 -12.07,0.242 -20.73,4.082 -25.96,11.531 -5.18,7.297 -7.74,16.758 -7.64,28.391 0.1,11.875 2.99,21.484 8.69,28.828 5.51,7.293 12.99,10.996 22.41,11.094 10.31,-0.196 17.85,-3.946 22.61,-11.242 4.52,-7.157 6.78,-16.004 6.78,-26.563 v -4.812 h -50.57 c 0,-8.301 2.07,-15.129 6.23,-20.489 4.05,-5.722 10.1,-8.613 18.11,-8.711 3.59,0 7.36,0.653 11.33,1.973 3.96,1.074 7.11,2.313 9.41,3.731 v -9.532"
         style="fill:#2056ae;fill-opacity:1;fill-rule:nonzero;stroke:none"
         transform="matrix(0.13333333,0,0,-0.13333333,0,98.866667)" />
      <path
         id="path7"
         d="m 1215.38,426.598 c -0.1,-5.782 0.09,-11.758 0.62,-17.942 h -8.83 v 13.567 h -0.29 c -0.66,-1.653 -1.58,-3.332 -2.75,-5.032 -1.14,-1.804 -2.62,-3.503 -4.46,-5.105 -1.83,-1.504 -4.1,-2.695 -6.83,-3.574 -2.7,-1.114 -5.96,-1.68 -9.83,-1.68 -8.94,0.098 -15.39,2.891 -19.33,8.398 -3.97,5.391 -5.9,12.383 -5.8,20.938 v 48.68 h 9.04 v -46.317 c 0,-7.304 1.39,-13.008 4.18,-17.101 2.73,-4.383 7.19,-6.571 13.38,-6.571 4.14,0 7.65,0.899 10.52,2.696 2.93,1.707 5.16,3.894 6.67,6.582 1.73,2.773 2.94,5.761 3.61,8.984 0.7,3.164 1.05,6.348 1.05,9.57 v 42.157 h 9.05 v -58.25"
         style="fill:#2056ae;fill-opacity:1;fill-rule:nonzero;stroke:none"
         transform="matrix(0.13333333,0,0,-0.13333333,0,98.866667)" />
      <path
         id="path8"
         d="m 1272.74,476.832 h -16.78 v -49.414 c 0,-3.496 0.76,-6.445 2.33,-8.84 1.42,-2.488 3.92,-3.719 7.52,-3.719 3.3,0 6.11,0.606 8.41,1.817 l 0.57,-7.746 c -1.07,-0.379 -2.58,-0.821 -4.51,-1.297 -2.03,-0.528 -4.24,-0.801 -6.64,-0.801 -3.95,0 -7.07,0.703 -9.38,2.117 -2.22,1.418 -3.88,3.254 -5.02,5.547 -0.97,2.383 -1.62,5.059 -1.89,8.027 -0.29,3.02 -0.43,6.282 -0.43,9.778 v 44.531 h -14.47 v 8.016 h 14.47 v 18.39 l 9.04,3.282 v -21.672 h 16.78 v -8.016"
         style="fill:#2056ae;fill-opacity:1;fill-rule:nonzero;stroke:none"
         transform="matrix(0.13333333,0,0,-0.13333333,0,98.866667)" />
      <path
         id="path9"
         d="m 1285.12,419.684 c 5.61,-3.125 11.99,-4.727 19.2,-4.825 4.57,0 8.42,1.231 11.58,3.719 3.11,2.297 4.71,5.578 4.81,9.863 -0.1,4.532 -1.9,8.086 -5.37,10.676 -3.5,2.481 -7.6,4.715 -12.31,6.719 -2.2,1.074 -4.33,2.207 -6.35,3.437 -2.03,1.211 -3.96,2.547 -5.8,4.004 -1.64,1.621 -3,3.465 -4.1,5.567 -1.03,1.992 -1.54,4.324 -1.54,7.011 0.1,7.598 2.58,12.969 7.48,16.141 4.75,3.117 10.25,4.68 16.52,4.68 2.11,0 4.87,-0.196 8.26,-0.586 3.34,-0.578 6.65,-1.524 9.95,-2.824 l -0.84,-8.192 c -5.34,2.285 -10.8,3.477 -16.43,3.574 -4.71,0 -8.46,-0.878 -11.25,-2.628 -1.44,-0.926 -2.58,-2.196 -3.38,-3.797 -0.86,-1.563 -1.29,-3.653 -1.29,-6.289 0,-1.555 0.55,-3.047 1.64,-4.454 1.04,-1.308 2.43,-2.5 4.16,-3.574 1.76,-1.027 3.73,-2.07 5.94,-3.144 2.23,-1.028 4.4,-2.121 6.5,-3.282 4.83,-2.109 9.01,-4.902 12.6,-8.41 3.58,-3.504 5.41,-8.347 5.51,-14.539 0,-3.996 -0.78,-7.324 -2.32,-10.011 -1.64,-2.774 -3.71,-5.008 -6.21,-6.719 -5.41,-3.309 -11.14,-4.969 -17.21,-4.969 -7.09,0 -13.97,1.211 -20.59,3.613 l 0.84,9.239"
         style="fill:#2056ae;fill-opacity:1;fill-rule:nonzero;stroke:none"
         transform="matrix(0.13333333,0,0,-0.13333333,0,98.866667)" />
      <path
         id="path10"
         d="m 1396.94,474.77 c -5.24,2.492 -10.51,3.781 -15.84,3.878 -8.87,-0.097 -15.65,-3.027 -20.37,-8.769 -4.94,-5.91 -7.42,-13.613 -7.42,-23.125 0,-8.879 2.44,-16.32 7.28,-22.316 4.73,-6.297 11.23,-9.481 19.53,-9.579 5.71,0 11.25,1.141 16.68,3.438 l 0.84,-8.789 c -5.97,-1.875 -12.28,-2.774 -18.92,-2.676 -11.86,0.242 -20.71,4.277 -26.49,12.109 -5.9,7.696 -8.83,16.961 -8.83,27.813 0.1,12.07 3.46,21.68 10.1,28.828 6.6,7.293 15.37,10.996 26.35,11.094 4.53,0 8.28,-0.344 11.31,-1.016 1.54,-0.293 2.89,-0.605 4.02,-0.937 1.07,-0.391 1.91,-0.723 2.46,-1.016 l -0.7,-8.937"
         style="fill:#2056ae;fill-opacity:1;fill-rule:nonzero;stroke:none"
         transform="matrix(0.13333333,0,0,-0.13333333,0,98.866667)" />
      <path
         id="path11"
         d="m 1415.28,520.758 h 9.04 v -48.692 h 0.27 c 2.04,4.258 5.02,7.793 8.99,10.606 3.94,2.578 8.61,3.906 13.98,4.004 9.85,-0.098 16.55,-3.098 20.14,-8.985 3.48,-5.976 5.18,-13.789 5.08,-23.418 v -45.617 h -9.04 v 45.52 c 0,3.359 -0.18,6.551 -0.57,9.57 -0.41,2.871 -1.25,5.41 -2.48,7.598 -2.31,4.773 -7.15,7.207 -14.49,7.304 -7.93,-0.195 -13.6,-3.339 -17,-9.425 -3.36,-6.082 -4.98,-12.664 -4.88,-19.727 v -40.84 h -9.04 v 112.102"
         style="fill:#2056ae;fill-opacity:1;fill-rule:nonzero;stroke:none"
         transform="matrix(0.13333333,0,0,-0.13333333,0,98.866667)" />
      <path
         id="path12"
         d="m 1543.42,452.066 c 0,7.012 -1.4,13.125 -4.24,18.36 -2.98,5.293 -7.87,8.027 -14.66,8.222 -6.66,-0.195 -11.94,-2.988 -15.8,-8.359 -3.97,-5.441 -5.96,-11.504 -5.96,-18.223 z m 4.44,-41.035 c -6.94,-2.707 -14.07,-4.101 -21.43,-4.199 -12.07,0.242 -20.7,4.082 -25.94,11.531 -5.19,7.297 -7.73,16.758 -7.63,28.391 0.09,11.875 2.98,21.484 8.69,28.828 5.51,7.293 12.97,10.996 22.4,11.094 10.31,-0.196 17.85,-3.946 22.6,-11.242 4.53,-7.157 6.79,-16.004 6.79,-26.563 v -4.812 h -50.58 c 0,-8.301 2.09,-15.129 6.23,-20.489 4.06,-5.722 10.1,-8.613 18.12,-8.711 3.6,0 7.37,0.653 11.33,1.973 3.97,1.074 7.11,2.313 9.42,3.731 v -9.532"
         style="fill:#2056ae;fill-opacity:1;fill-rule:nonzero;stroke:none"
         transform="matrix(0.13333333,0,0,-0.13333333,0,98.866667)" />
      <path
         id="path13"
         d="m 983.168,333.59 h 48.012 v -8.899 h -38.09 v -37.304 h 36.33 v -8.879 h -36.33 v -49.203 h -9.922 V 333.59"
         style="fill:#2056ae;fill-opacity:1;fill-rule:nonzero;stroke:none"
         transform="matrix(0.13333333,0,0,-0.13333333,0,98.866667)" />
      <path
         id="path14"
         d="m 1054.03,267.391 c 0,-9.063 2.13,-16.563 6.37,-22.461 4.06,-6.192 10.11,-9.336 18.16,-9.434 8.03,0.098 14.16,3.242 18.42,9.434 4.06,5.898 6.09,13.398 6.09,22.461 0,9.121 -2.03,16.714 -6.09,22.761 -4.26,5.996 -10.39,9.043 -18.42,9.141 -8.05,-0.098 -14.1,-3.145 -18.16,-9.141 -4.24,-6.047 -6.37,-13.64 -6.37,-22.761 z m -9.92,0 c 0,10.863 2.81,20.125 8.41,27.808 5.55,7.883 14.22,11.926 26,12.121 11.95,-0.195 20.74,-4.238 26.35,-12.121 5.41,-7.683 8.12,-16.945 8.12,-27.808 0,-10.645 -2.71,-19.864 -8.12,-27.657 -5.61,-7.929 -14.4,-12.011 -26.35,-12.265 -11.78,0.254 -20.45,4.336 -26,12.265 -5.6,7.793 -8.41,17.012 -8.41,27.657"
         style="fill:#2056ae;fill-opacity:1;fill-rule:nonzero;stroke:none"
         transform="matrix(0.13333333,0,0,-0.13333333,0,98.866667)" />
      <path
         id="path15"
         d="m 1132.93,288.492 c 0,7.051 -0.19,12.715 -0.56,17 h 9.04 v -14.59 h 0.27 c 1.74,4.473 4.2,8.293 7.37,11.457 3.1,3.204 6.97,4.864 11.58,4.961 2.4,-0.097 4.53,-0.39 6.37,-0.871 v -9.785 c -2.03,0.586 -4.24,0.879 -6.64,0.879 -3.6,-0.098 -6.55,-0.996 -8.85,-2.703 -2.31,-1.797 -4.2,-4.238 -5.65,-7.305 -1.38,-3.019 -2.34,-6.258 -2.91,-9.715 -0.66,-3.711 -0.99,-7.304 -0.99,-10.816 v -37.699 h -9.03 v 59.187"
         style="fill:#2056ae;fill-opacity:1;fill-rule:nonzero;stroke:none"
         transform="matrix(0.13333333,0,0,-0.13333333,0,98.866667)" />
      <path
         id="path16"
         d="m 1177.04,240.32 c 5.6,-3.125 11.99,-4.726 19.2,-4.824 4.57,0 8.41,1.25 11.58,3.731 3.1,2.285 4.7,5.57 4.8,9.867 -0.1,4.527 -1.89,8.086 -5.37,10.664 -3.5,2.476 -7.6,4.722 -12.3,6.715 -2.21,1.078 -4.34,2.226 -6.35,3.437 -2.03,1.211 -3.97,2.559 -5.8,4.024 -1.64,1.601 -3.01,3.457 -4.1,5.546 -1.04,1.993 -1.55,4.333 -1.55,7.02 0.1,7.598 2.58,12.977 7.48,16.141 4.75,3.117 10.26,4.679 16.53,4.679 2.11,0 4.86,-0.195 8.26,-0.586 3.34,-0.578 6.64,-1.523 9.94,-2.824 l -0.84,-8.191 c -5.33,2.285 -10.8,3.476 -16.43,3.574 -4.7,0 -8.45,-0.871 -11.25,-2.629 -1.44,-0.926 -2.57,-2.187 -3.37,-3.797 -0.86,-1.562 -1.29,-3.652 -1.29,-6.281 0,-1.563 0.54,-3.039 1.64,-4.469 1.03,-1.308 2.42,-2.5 4.16,-3.57 1.76,-1.02 3.73,-2.074 5.94,-3.149 2.22,-1.011 4.39,-2.109 6.5,-3.281 4.82,-2.09 9,-4.898 12.6,-8.398 3.57,-3.516 5.41,-8.36 5.5,-14.547 0,-3.988 -0.78,-7.328 -2.32,-10 -1.64,-2.777 -3.71,-5.024 -6.21,-6.723 -5.41,-3.316 -11.13,-4.98 -17.21,-4.98 -7.09,0 -13.96,1.211 -20.58,3.617 l 0.84,9.234"
         style="fill:#2056ae;fill-opacity:1;fill-rule:nonzero;stroke:none"
         transform="matrix(0.13333333,0,0,-0.13333333,0,98.866667)" />
      <path
         id="path17"
         d="m 1288.85,295.414 c -5.23,2.492 -10.51,3.781 -15.84,3.879 -8.86,-0.098 -15.64,-3.02 -20.37,-8.781 -4.94,-5.899 -7.42,-13.61 -7.42,-23.121 0,-8.868 2.44,-16.305 7.28,-22.301 4.73,-6.289 11.24,-9.496 19.54,-9.594 5.7,0 11.25,1.152 16.68,3.438 l 0.84,-8.789 c -5.98,-1.875 -12.29,-2.774 -18.93,-2.676 -11.86,0.254 -20.7,4.297 -26.48,12.129 -5.9,7.675 -8.83,16.957 -8.83,27.793 0.1,12.074 3.45,21.675 10.1,28.836 6.6,7.293 15.37,10.996 26.34,11.093 4.53,0 8.28,-0.343 11.31,-1.015 1.54,-0.293 2.89,-0.606 4.02,-0.938 1.08,-0.39 1.92,-0.722 2.47,-1.015 l -0.71,-8.938"
         style="fill:#2056ae;fill-opacity:1;fill-rule:nonzero;stroke:none"
         transform="matrix(0.13333333,0,0,-0.13333333,0,98.866667)" />
      <path
         id="path18"
         d="m 1307.19,341.402 h 9.05 v -48.691 h 0.27 c 2.03,4.266 5.02,7.801 8.98,10.605 3.95,2.567 8.62,3.907 13.99,4.004 9.84,-0.097 16.54,-3.097 20.13,-8.984 3.48,-5.977 5.18,-13.789 5.08,-23.426 v -45.605 h -9.04 v 45.508 c 0,3.363 -0.18,6.566 -0.57,9.578 -0.41,2.871 -1.25,5.41 -2.48,7.597 -2.3,4.774 -7.15,7.207 -14.49,7.305 -7.93,-0.195 -13.59,-3.332 -16.99,-9.426 -3.36,-6.082 -4.98,-12.672 -4.88,-19.722 v -40.84 h -9.05 v 112.097"
         style="fill:#2056ae;fill-opacity:1;fill-rule:nonzero;stroke:none"
         transform="matrix(0.13333333,0,0,-0.13333333,0,98.866667)" />
      <path
         id="path19"
         d="m 1447.82,247.258 c -0.1,-5.805 0.1,-11.781 0.62,-17.953 h -8.83 v 13.554 h -0.29 c -0.66,-1.64 -1.58,-3.32 -2.75,-5.015 -1.14,-1.797 -2.62,-3.52 -4.46,-5.121 -1.83,-1.504 -4.1,-2.696 -6.83,-3.575 -2.7,-1.113 -5.96,-1.679 -9.83,-1.679 -8.94,0.097 -15.39,2.914 -19.33,8.398 -3.97,5.41 -5.9,12.387 -5.8,20.938 v 48.687 h 9.04 v -46.32 c 0,-7.309 1.39,-13.012 4.18,-17.094 2.73,-4.394 7.19,-6.582 13.38,-6.582 4.14,0 7.66,0.899 10.53,2.695 2.93,1.719 5.15,3.907 6.66,6.582 1.73,2.778 2.95,5.782 3.61,8.989 0.7,3.164 1.05,6.367 1.05,9.566 v 42.164 h 9.05 v -58.234"
         style="fill:#2056ae;fill-opacity:1;fill-rule:nonzero;stroke:none"
         transform="matrix(0.13333333,0,0,-0.13333333,0,98.866667)" />
      <path
         id="path20"
         d="m 1473.44,287.621 c 0,5.832 -0.17,11.789 -0.56,17.871 h 8.82 V 291.93 h 0.28 c 0.84,1.797 1.85,3.593 3.02,5.39 1.14,1.805 2.58,3.426 4.32,4.891 1.84,1.602 4.08,2.871 6.78,3.789 2.71,0.879 5.94,1.32 9.65,1.32 9.08,-0.097 15.6,-2.902 19.55,-8.398 3.77,-5.352 5.64,-12.305 5.64,-20.867 v -48.75 h -9.04 v 46.386 c 0,7.27 -1.29,13.036 -3.89,17.321 -2.83,4.093 -7.38,6.183 -13.65,6.281 -8.12,-0.195 -13.83,-3.164 -17.13,-8.906 -1.7,-2.735 -2.91,-5.684 -3.61,-8.856 -0.76,-3.301 -1.13,-6.66 -1.13,-10.078 v -42.148 h -9.05 v 58.316"
         style="fill:#2056ae;fill-opacity:1;fill-rule:nonzero;stroke:none"
         transform="matrix(0.13333333,0,0,-0.13333333,0,98.866667)" />
      <path
         id="path21"
         d="m 1562.09,267.391 c -0.09,-7.793 1.53,-14.629 4.89,-20.489 3.32,-6.187 8.79,-9.39 16.44,-9.589 8.23,0.199 14.07,3.496 17.52,9.882 3.3,6.192 4.96,12.934 4.96,20.196 0,9.511 -1.54,17.175 -4.61,22.976 -3.22,5.86 -8.98,8.828 -17.3,8.926 -4.34,0 -7.89,-0.949 -10.63,-2.852 -2.79,-1.757 -5.05,-4.238 -6.79,-7.461 -1.57,-2.98 -2.72,-6.375 -3.48,-10.164 -0.66,-3.804 -1,-7.617 -1,-11.425 z m 52.84,-31.817 c 0,-10.855 -2.54,-19.922 -7.64,-27.226 -5.31,-7.34 -14.3,-11.114 -26.91,-11.309 -4.85,0.098 -9.3,0.625 -13.36,1.602 -3.95,1.015 -6.96,1.82 -8.97,2.406 l 0.78,9.351 c 6.08,-3.359 13.32,-5.136 21.72,-5.332 5.9,0.098 10.53,1.196 13.89,3.282 3.48,1.996 6.05,4.789 7.71,8.379 1.74,3.593 2.85,7.714 3.32,12.382 0.39,4.668 0.57,9.692 0.57,15.102 h -0.29 c -5.22,-10.141 -12.7,-15.102 -22.41,-14.906 -11.58,0.293 -19.68,4.574 -24.29,12.832 -2.46,3.808 -4.16,7.89 -5.1,12.265 -1.17,4.375 -1.76,8.711 -1.76,12.989 -0.1,11.875 2.27,21.433 7.13,28.687 4.81,7.395 12.56,11.145 23.26,11.242 4.85,0 9.1,-0.558 12.78,-1.672 3.53,-1.355 6.95,-4.246 10.25,-8.691 h 0.29 v 8.555 l 9.03,-0.02 v -69.918"
         style="fill:#2056ae;fill-opacity:1;fill-rule:nonzero;stroke:none"
         transform="matrix(0.13333333,0,0,-0.13333333,0,98.866667)" />
      <path
         id="path22"
         d="m 1634.03,240.32 c 5.6,-3.125 11.99,-4.726 19.2,-4.824 4.57,0 8.42,1.25 11.58,3.731 3.11,2.285 4.71,5.57 4.8,9.867 -0.09,4.527 -1.89,8.086 -5.37,10.664 -3.49,2.476 -7.59,4.722 -12.3,6.715 -2.21,1.078 -4.34,2.226 -6.35,3.437 -2.03,1.211 -3.96,2.559 -5.8,4.024 -1.64,1.601 -3.01,3.457 -4.1,5.546 -1.04,1.993 -1.54,4.333 -1.54,7.02 0.09,7.598 2.57,12.977 7.48,16.141 4.74,3.117 10.25,4.679 16.52,4.679 2.11,0 4.86,-0.195 8.26,-0.586 3.34,-0.578 6.64,-1.523 9.94,-2.824 l -0.84,-8.191 c -5.33,2.285 -10.8,3.476 -16.42,3.574 -4.71,0 -8.46,-0.871 -11.25,-2.629 -1.45,-0.926 -2.58,-2.187 -3.38,-3.797 -0.86,-1.562 -1.29,-3.652 -1.29,-6.281 0,-1.563 0.55,-3.039 1.64,-4.469 1.03,-1.308 2.42,-2.5 4.16,-3.57 1.76,-1.02 3.73,-2.074 5.94,-3.149 2.22,-1.011 4.39,-2.109 6.5,-3.281 4.83,-2.09 9.01,-4.898 12.6,-8.398 3.57,-3.516 5.41,-8.36 5.51,-14.547 0,-3.988 -0.78,-7.328 -2.33,-10 -1.64,-2.777 -3.71,-5.024 -6.21,-6.723 -5.41,-3.316 -11.13,-4.98 -17.21,-4.98 -7.09,0 -13.96,1.211 -20.58,3.617 l 0.84,9.234"
         style="fill:#2056ae;fill-opacity:1;fill-rule:nonzero;stroke:none"
         transform="matrix(0.13333333,0,0,-0.13333333,0,98.866667)" />
      <path
         id="path23"
         d="m 1703.38,267.391 c -0.09,-7.793 1.53,-14.629 4.89,-20.489 3.32,-6.187 8.79,-9.39 16.44,-9.589 8.22,0.199 14.06,3.496 17.52,9.882 3.3,6.192 4.96,12.934 4.96,20.196 0,9.511 -1.54,17.175 -4.61,22.976 -3.22,5.86 -8.98,8.828 -17.3,8.926 -4.34,0 -7.89,-0.949 -10.63,-2.852 -2.79,-1.757 -5.06,-4.238 -6.79,-7.461 -1.57,-2.98 -2.72,-6.375 -3.48,-10.164 -0.66,-3.804 -1,-7.617 -1,-11.425 z m 52.84,-31.817 c 0,-10.855 -2.54,-19.922 -7.64,-27.226 -5.31,-7.34 -14.3,-11.114 -26.91,-11.309 -4.85,0.098 -9.3,0.625 -13.36,1.602 -3.95,1.015 -6.96,1.82 -8.97,2.406 l 0.78,9.351 c 6.08,-3.359 13.32,-5.136 21.72,-5.332 5.9,0.098 10.53,1.196 13.89,3.282 3.47,1.996 6.05,4.789 7.71,8.379 1.74,3.593 2.85,7.714 3.32,12.382 0.39,4.668 0.57,9.692 0.57,15.102 h -0.29 c -5.22,-10.141 -12.7,-15.102 -22.41,-14.906 -11.58,0.293 -19.68,4.574 -24.29,12.832 -2.46,3.808 -4.16,7.89 -5.1,12.265 -1.17,4.375 -1.76,8.711 -1.76,12.989 -0.1,11.875 2.27,21.433 7.13,28.687 4.81,7.395 12.56,11.145 23.26,11.242 4.85,0 9.1,-0.558 12.78,-1.672 3.53,-1.355 6.95,-4.246 10.25,-8.691 h 0.29 v 8.555 l 9.03,-0.02 v -69.918"
         style="fill:#2056ae;fill-opacity:1;fill-rule:nonzero;stroke:none"
         transform="matrix(0.13333333,0,0,-0.13333333,0,98.866667)" />
      <path
         id="path24"
         d="m 1826,272.723 c 0,6.996 -1.41,13.113 -4.24,18.347 -2.99,5.293 -7.87,8.028 -14.67,8.223 -6.66,-0.195 -11.93,-2.98 -15.8,-8.371 -3.96,-5.43 -5.95,-11.496 -5.95,-18.199 z m 4.43,-41.051 c -6.93,-2.699 -14.06,-4.106 -21.42,-4.203 -12.07,0.254 -20.7,4.101 -25.94,11.543 -5.19,7.289 -7.73,16.758 -7.64,28.379 0.1,11.875 2.99,21.48 8.7,28.836 5.5,7.293 12.96,10.996 22.4,11.093 10.31,-0.195 17.85,-3.945 22.6,-11.242 4.53,-7.148 6.79,-16.012 6.79,-26.558 v -4.825 h -50.58 c 0,-8.281 2.09,-15.117 6.23,-20.484 4.06,-5.703 10.1,-8.617 18.12,-8.715 3.6,0 7.37,0.664 11.33,1.973 3.97,1.078 7.11,2.328 9.41,3.73 v -9.527"
         style="fill:#2056ae;fill-opacity:1;fill-rule:nonzero;stroke:none"
         transform="matrix(0.13333333,0,0,-0.13333333,0,98.866667)" />
      <path
         id="path25"
         d="m 1946.27,229.305 v 50.707 c 0,2.808 -0.19,5.422 -0.58,7.816 -0.61,2.285 -1.56,4.285 -2.89,5.985 -1.17,1.757 -2.81,3.144 -4.94,4.171 -2.11,0.868 -4.75,1.309 -7.89,1.309 -5.3,0 -10.02,-2.188 -14.14,-6.574 -4.24,-4.578 -6.41,-11.672 -6.51,-21.266 v -42.148 h -9.02 v 50.707 c 0,2.808 -0.24,5.422 -0.67,7.816 -0.58,2.285 -1.56,4.285 -2.87,5.985 -1.19,1.757 -2.83,3.144 -4.94,4.171 -2.13,0.868 -4.74,1.309 -7.89,1.309 -5.31,0 -10.04,-2.188 -14.16,-6.574 -4.24,-4.578 -6.39,-11.672 -6.48,-21.266 v -42.148 h -9.07 v 58.308 c 0,5.84 -0.17,11.797 -0.56,17.879 h 9.1 v -12.851 l 0.27,-0.137 c 0.69,1.406 1.64,2.961 2.85,4.668 0.96,1.699 2.35,3.281 4.14,4.746 1.8,1.504 4.03,2.824 6.68,3.937 2.68,0.977 6,1.465 9.97,1.465 1.79,0 3.75,-0.195 5.82,-0.586 1.99,-0.39 3.98,-1.191 5.97,-2.402 1.97,-1.113 3.73,-2.715 5.24,-4.797 1.44,-2.176 2.5,-4.941 3.12,-8.289 h 0.29 c 1.88,4.559 4.93,8.359 9.09,11.414 4.08,3.008 9.14,4.563 15.19,4.66 7.72,-0.097 13.65,-2.48 17.81,-7.16 4.09,-4.617 6.12,-10.75 6.12,-18.394 v -52.461 h -9.05"
         style="fill:#2056ae;fill-opacity:1;fill-rule:nonzero;stroke:none"
         transform="matrix(0.13333333,0,0,-0.13333333,0,98.866667)" />
      <path
         id="path26"
         d="m 2025.24,272.723 c 0,6.996 -1.43,13.113 -4.26,18.347 -2.97,5.293 -7.87,8.028 -14.67,8.223 -6.66,-0.195 -11.91,-2.98 -15.8,-8.371 -3.96,-5.43 -5.93,-11.496 -5.93,-18.199 z m 4.41,-41.051 c -6.91,-2.699 -14.06,-4.106 -21.4,-4.203 -12.07,0.254 -20.73,4.101 -25.96,11.543 -5.18,7.289 -7.73,16.758 -7.64,28.379 0.1,11.875 2.99,21.48 8.69,28.836 5.51,7.293 12.99,10.996 22.41,11.093 10.31,-0.195 17.85,-3.945 22.61,-11.242 4.52,-7.148 6.78,-16.012 6.78,-26.558 v -4.825 h -50.56 c 0,-8.281 2.07,-15.117 6.23,-20.484 4.04,-5.703 10.09,-8.617 18.1,-8.715 3.59,0 7.36,0.664 11.33,1.973 3.96,1.078 7.11,2.328 9.41,3.73 v -9.527"
         style="fill:#2056ae;fill-opacity:1;fill-rule:nonzero;stroke:none"
         transform="matrix(0.13333333,0,0,-0.13333333,0,98.866667)" />
      <path
         id="path27"
         d="m 2054.95,305.492 h 9.02 v -76.187 h -9.02 z m 9.02,20.363 h -9.02 v 12.54 h 9.02 v -12.54"
         style="fill:#2056ae;fill-opacity:1;fill-rule:nonzero;stroke:none"
         transform="matrix(0.13333333,0,0,-0.13333333,0,98.866667)" />
      <path
         id="path28"
         d="m 2088.15,287.621 c 0,5.832 -0.2,11.789 -0.57,17.871 h 8.81 V 291.93 h 0.29 c 0.84,1.797 1.86,3.593 3.03,5.39 1.13,1.805 2.56,3.426 4.3,4.891 1.83,1.602 4.1,2.871 6.78,3.789 2.73,0.879 5.95,1.32 9.66,1.32 9.09,-0.097 15.59,-2.902 19.54,-8.398 3.76,-5.352 5.64,-12.305 5.64,-20.867 v -48.75 h -9.02 v 46.386 c 0,7.27 -1.31,13.036 -3.91,17.321 -2.83,4.093 -7.38,6.183 -13.65,6.281 -8.11,-0.195 -13.83,-3.164 -17.13,-8.906 -1.7,-2.735 -2.89,-5.684 -3.61,-8.856 -0.75,-3.301 -1.14,-6.66 -1.14,-10.078 v -42.148 h -9.02 v 58.316"
         style="fill:#2056ae;fill-opacity:1;fill-rule:nonzero;stroke:none"
         transform="matrix(0.13333333,0,0,-0.13333333,0,98.866667)" />
      <path
         id="path29"
         d="m 2165.61,240.32 c 5.61,-3.125 11.99,-4.726 19.2,-4.824 4.57,0 8.42,1.25 11.58,3.731 3.11,2.285 4.71,5.57 4.81,9.867 -0.1,4.527 -1.9,8.086 -5.37,10.664 -3.5,2.476 -7.6,4.722 -12.31,6.715 -2.21,1.078 -4.34,2.226 -6.35,3.437 -2.03,1.211 -3.96,2.559 -5.8,4.024 -1.64,1.601 -3.01,3.457 -4.1,5.546 -1.03,1.993 -1.54,4.333 -1.54,7.02 0.1,7.598 2.58,12.977 7.48,16.141 4.74,3.117 10.25,4.679 16.52,4.679 2.11,0 4.86,-0.195 8.26,-0.586 3.34,-0.578 6.64,-1.523 9.94,-2.824 l -0.84,-8.191 c -5.33,2.285 -10.8,3.476 -16.42,3.574 -4.71,0 -8.46,-0.871 -11.25,-2.629 -1.45,-0.926 -2.58,-2.187 -3.38,-3.797 -0.86,-1.562 -1.29,-3.652 -1.29,-6.281 0,-1.563 0.55,-3.039 1.64,-4.469 1.04,-1.308 2.42,-2.5 4.16,-3.57 1.76,-1.02 3.73,-2.074 5.94,-3.149 2.23,-1.011 4.39,-2.109 6.5,-3.281 4.83,-2.09 9.01,-4.898 12.6,-8.398 3.58,-3.516 5.41,-8.36 5.51,-14.547 0,-3.988 -0.78,-7.328 -2.33,-10 -1.64,-2.777 -3.71,-5.024 -6.21,-6.723 -5.41,-3.316 -11.13,-4.98 -17.2,-4.98 -7.09,0 -13.97,1.211 -20.59,3.617 l 0.84,9.234"
         style="fill:#2056ae;fill-opacity:1;fill-rule:nonzero;stroke:none"
         transform="matrix(0.13333333,0,0,-0.13333333,0,98.866667)" />
      <path
         id="path30"
         d="m 2277.43,295.414 c -5.24,2.492 -10.51,3.781 -15.84,3.879 -8.87,-0.098 -15.65,-3.02 -20.37,-8.781 -4.95,-5.899 -7.43,-13.61 -7.43,-23.121 0,-8.868 2.45,-16.305 7.29,-22.301 4.73,-6.289 11.23,-9.496 19.53,-9.594 5.7,0 11.25,1.152 16.68,3.438 l 0.84,-8.789 c -5.98,-1.875 -12.29,-2.774 -18.93,-2.676 -11.85,0.254 -20.7,4.297 -26.48,12.129 -5.9,7.675 -8.83,16.957 -8.83,27.793 0.1,12.074 3.46,21.675 10.1,28.836 6.6,7.293 15.37,10.996 26.35,11.093 4.53,0 8.28,-0.343 11.31,-1.015 1.54,-0.293 2.89,-0.606 4.02,-0.938 1.07,-0.39 1.91,-0.722 2.46,-1.015 l -0.7,-8.938"
         style="fill:#2056ae;fill-opacity:1;fill-rule:nonzero;stroke:none"
         transform="matrix(0.13333333,0,0,-0.13333333,0,98.866667)" />
      <path
         id="path31"
         d="m 2295.77,341.402 h 9.02 v -48.691 h 0.29 c 2.03,4.266 5.02,7.801 8.97,10.605 3.96,2.567 8.61,3.907 13.98,4.004 9.85,-0.097 16.56,-3.097 20.14,-8.984 3.5,-5.977 5.17,-13.789 5.08,-23.426 v -45.605 h -9.03 v 45.508 c 0,3.363 -0.19,6.566 -0.56,9.578 -0.43,2.871 -1.25,5.41 -2.48,7.597 -2.31,4.774 -7.15,7.207 -14.51,7.305 -7.93,-0.195 -13.6,-3.332 -17,-9.426 -3.34,-6.082 -4.98,-12.672 -4.88,-19.722 v -40.84 h -9.02 v 112.097"
         style="fill:#2056ae;fill-opacity:1;fill-rule:nonzero;stroke:none"
         transform="matrix(0.13333333,0,0,-0.13333333,0,98.866667)" />
      <path
         id="path32"
         d="m 2420.42,267.703 h -2.62 c -3.97,0 -7.93,-0.113 -11.9,-0.312 -4.16,-0.371 -7.93,-1.231 -11.32,-2.555 -3.4,-1.176 -6.12,-2.992 -8.15,-5.492 -2.23,-2.539 -3.32,-5.899 -3.32,-10.098 0,-4.859 1.54,-8.359 4.67,-10.445 2.87,-2.207 6.44,-3.305 10.68,-3.305 5.33,0 9.53,1.098 12.6,3.305 3.03,2.086 5.21,4.566 6.58,7.461 1.43,3.125 2.23,6.168 2.42,9.136 0.24,3.125 0.36,5.688 0.36,7.676 z m 0.83,-26.211 h -0.29 c -2.11,-4.453 -5.37,-7.871 -9.74,-10.23 -4.34,-2.422 -8.91,-3.696 -13.72,-3.793 -5.13,0.097 -9.27,0.961 -12.44,2.558 -3.3,1.504 -5.82,3.403 -7.56,5.688 -3.06,4.937 -4.51,9.375 -4.31,13.258 0,6.371 1.48,11.386 4.45,15.082 2.93,3.687 6.64,6.328 11.17,7.949 4.53,1.637 9.46,2.73 14.77,3.258 5.23,0.293 10.25,0.453 15.06,0.453 h 1.78 v 3.883 c 0.29,13.132 -5.34,19.695 -16.86,19.695 -7.64,0.098 -14.88,-2.004 -21.72,-6.32 v 9.14 c 6.84,3.274 14.06,5.012 21.68,5.207 17.48,0.184 26.11,-9.269 25.92,-28.386 v -33.653 c -0.14,-5.777 0.12,-11.109 0.76,-15.976 h -8.95 v 12.187"
         style="fill:#2056ae;fill-opacity:1;fill-rule:nonzero;stroke:none"
         transform="matrix(0.13333333,0,0,-0.13333333,0,98.866667)" />
      <path
         id="path33"
         d="m 2459.83,297.465 h -14.9 v 8.027 h 14.9 v 5.547 c 0,4.082 0.17,8.078 0.57,11.965 0.17,3.797 0.91,7.176 2.18,10.144 1.21,3.118 3.19,5.567 5.92,7.375 2.58,1.747 6.19,2.625 10.8,2.625 1.54,0 3.15,-0.046 4.79,-0.144 1.66,-0.293 2.89,-0.734 3.75,-1.309 l -0.57,-8.242 c -2.03,1.113 -4.43,1.68 -7.23,1.68 -3.02,0 -5.31,-0.715 -6.85,-2.121 -1.66,-1.61 -2.77,-3.555 -3.34,-5.84 -0.57,-2.285 -0.84,-4.727 -0.84,-7.305 -0.1,-2.676 -0.16,-5.254 -0.16,-7.734 v -6.641 h 16.64 v -8.027 h -16.64 v -68.16 h -9.02 v 68.16"
         style="fill:#2056ae;fill-opacity:1;fill-rule:nonzero;stroke:none"
         transform="matrix(0.13333333,0,0,-0.13333333,0,98.866667)" />
      <path
         id="path34"
         d="m 2535.12,297.465 h -16.78 v -49.391 c 0,-3.515 0.77,-6.465 2.33,-8.847 1.42,-2.481 3.92,-3.731 7.52,-3.731 3.3,0 6.11,0.606 8.42,1.84 l 0.56,-7.758 c -1.07,-0.39 -2.58,-0.816 -4.51,-1.308 -2.03,-0.528 -4.24,-0.801 -6.64,-0.801 -3.94,0 -7.07,0.707 -9.37,2.129 -2.23,1.41 -3.89,3.261 -5.02,5.547 -0.98,2.382 -1.63,5.058 -1.9,8.031 -0.29,3.004 -0.43,6.265 -0.43,9.762 v 44.527 h -14.47 v 8.027 h 14.47 v 18.391 l 9.04,3.281 v -21.672 h 16.78 v -8.027"
         style="fill:#2056ae;fill-opacity:1;fill-rule:nonzero;stroke:none"
         transform="matrix(0.13333333,0,0,-0.13333333,0,98.866667)" />
      <text
         id="text34"
         xml:space="preserve"
         transform="matrix(1.3333333,0,0,1.3333333,129.94787,95.2)"><tspan
           id="tspan34"
           style="font-variant:normal;font-weight:300;font-size:11px;font-family:'Frutiger 45 Light';writing-mode:lr-tb;fill:#6ba2dc;fill-opacity:1;fill-rule:nonzero;stroke:none"
           x="0"
           dx="0 0 0 0 0 0 0 0 0 0 0 0 0 -0.19913299"
           y="0">German Research Foundation</tspan></text>
      <path
         id="path35"
         d="M 0.95045625,4.125e-4 H 1.7942062 V -4.0425562 H 4.8762375 V -4.7808375 H 1.7942062 v -3.0585937 h 3.234375 V -8.5777125 H 0.95045625 Z M 11.315691,-6.2574 h -0.773438 v 3.4570313 c 0,1.0429687 -0.445312,2.2851562 -1.8515624,2.2851562 -1.078125,0 -1.4882812,-0.7617187 -1.4882812,-1.9453125 V -6.2574 H 6.4289719 v 3.9960938 c 0,1.38281245 0.5859375,2.41406245 2.1328125,2.41406245 1.3007812,0 1.7695316,-0.703125 2.0273436,-1.26562495 h 0.02344 V 4.125e-4 h 0.75 c -0.04687,-0.50390625 -0.04687,-0.99609375 -0.04687,-1.4765625 z m 1.945312,6.2578125 h 0.773438 v -3.46875 c 0,-1.0429687 0.445312,-2.2734375 1.851562,-2.2734375 1.066406,0 1.488281,0.7617188 1.488281,1.9335938 V 4.125e-4 h 0.773438 V -4.0074 c 0,-1.3710937 -0.585938,-2.4023437 -2.132813,-2.4023437 -1.3125,0 -1.769531,0.703125 -2.027343,1.265625 h -0.02344 V -6.2574 h -0.75 c 0.04687,0.4921875 0.04687,0.984375 0.04687,1.4648438 z M 25.047136,-9.210525 h -0.773438 v 4.0078125 h -0.02344 c -0.105469,-0.3164062 -0.726563,-1.2070312 -1.957031,-1.2070312 -1.839844,0 -2.578125,1.3710937 -2.578125,3.28125 0,1.8515625 0.867187,3.28124995 2.578125,3.28124995 0.902343,0 1.535156,-0.3515625 1.957031,-1.1484375 h 0.02344 V 4.125e-4 h 0.773438 z m -4.476563,6.0820313 c 0,-1.21875 0.375,-2.6132813 1.851563,-2.6132813 1.371094,0 1.851562,1.4648438 1.851562,2.6132813 0,1.1367187 -0.480468,2.6132812 -1.851562,2.6132812 -1.476563,0 -1.851563,-1.3945312 -1.851563,-2.6132812 z m 10.546875,2.1445312 c -0.363281,0.234375 -1.183593,0.46875 -1.757812,0.46875 -1.347656,0 -2.0625,-1.0664062 -2.0625,-2.390625 h 4.289062 V -3.304275 c 0,-1.6757812 -0.726562,-3.1054687 -2.496093,-3.1054687 -1.582032,0 -2.636719,1.359375 -2.636719,3.28125 0,1.875 0.773437,3.28124995 2.847656,3.28124995 0.574219,0 1.277344,-0.12890625 1.816406,-0.3515625 z m -3.820312,-2.5898437 c 0,-1.03125 0.703125,-2.1679688 1.839844,-2.1679688 1.160156,0 1.605468,1.078125 1.605468,2.1679688 z M 38.022722,-9.210525 h -0.773438 v 4.0078125 h -0.02344 c -0.105469,-0.3164062 -0.726563,-1.2070312 -1.957031,-1.2070312 -1.839844,0 -2.578125,1.3710937 -2.578125,3.28125 0,1.8515625 0.867187,3.28124995 2.578125,3.28124995 0.902343,0 1.535156,-0.3515625 1.957031,-1.1484375 h 0.02344 V 4.125e-4 h 0.773438 z m -4.476563,6.0820313 c 0,-1.21875 0.375,-2.6132813 1.851563,-2.6132813 1.371094,0 1.851562,1.4648438 1.851562,2.6132813 0,1.1367187 -0.480468,2.6132812 -1.851562,2.6132812 -1.476563,0 -1.851563,-1.3945312 -1.851563,-2.6132812 z m 9.697266,3.1289062 h 0.773437 v -0.99609375 h 0.02344 c 0.410156,0.796875 1.054687,1.1484375 1.945312,1.1484375 1.722657,0 2.578125,-1.42968745 2.578125,-3.28124995 0,-1.9101563 -0.738281,-3.28125 -2.578125,-3.28125 -1.230468,0 -1.839843,0.890625 -1.945312,1.2070312 h -0.02344 V -9.210525 h -0.773437 z m 4.476562,-3.1289062 c 0,1.21875 -0.375,2.6132812 -1.851562,2.6132812 -1.382813,0 -1.851563,-1.4765625 -1.851563,-2.6132812 0,-1.1484375 0.433594,-2.6132813 1.851563,-2.6132813 1.476562,0 1.851562,1.3945313 1.851562,2.6132813 z M 50.13405,-6.2574 h -0.855469 l 2.226563,6.328125 -0.164063,0.55078125 C 51.106706,1.4418188 50.88405,1.9926 50.216081,1.9926 c -0.28125,0 -0.433594,-0.046875 -0.574219,-0.1054687 L 49.57155,2.5551 c 0.257812,0.058594 0.550781,0.09375 0.832031,0.09375 0.867188,0 1.3125,-0.8554687 1.605469,-1.7109375 L 54.516862,-6.2574 h -0.808593 l -1.804688,5.2148438 h -0.01172 z m 0,0"
         style="fill:#6ba2dc;fill-opacity:1;fill-rule:nonzero;stroke:none"
         aria-label="Funded by"
         transform="matrix(1.3333333,0,0,1.3333333,0.0296,13.5932)" />
    </g>
  </g>
</svg>
