<?xml version="1.0" encoding="UTF-8" standalone="no"?>
<!-- Generator: Adobe Illustrator 14.0.0, SVG Export Plug-In . SVG Version: 6.00 Build 43363)  -->

<svg
   version="1.1"
   id="Ebene_1"
   x="0px"
   y="0px"
   width="494.51001"
   height="149.892"
   viewBox="0 0 494.51002 149.892"
   enable-background="new 0 0 566.93 226.77"
   xml:space="preserve"
   sodipodi:docname="kieker-logo.svg"
   inkscape:version="1.4 (e7c3feb100, 2024-10-09)"
   xmlns:inkscape="http://www.inkscape.org/namespaces/inkscape"
   xmlns:sodipodi="http://sodipodi.sourceforge.net/DTD/sodipodi-0.dtd"
   xmlns="http://www.w3.org/2000/svg"
   xmlns:svg="http://www.w3.org/2000/svg"><defs
   id="defs1" /><sodipodi:namedview
   id="namedview1"
   pagecolor="#ffffff"
   bordercolor="#000000"
   borderopacity="0.25"
   inkscape:showpageshadow="2"
   inkscape:pageopacity="0.0"
   inkscape:pagecheckerboard="0"
   inkscape:deskcolor="#d1d1d1"
   showgrid="false"
   inkscape:zoom="2.3049289"
   inkscape:cx="309.77094"
   inkscape:cy="101.08772"
   inkscape:window-width="2560"
   inkscape:window-height="1403"
   inkscape:window-x="0"
   inkscape:window-y="0"
   inkscape:window-maximized="1"
   inkscape:current-layer="Ebene_1" />
<rect
   style="fill:#ffffff;stroke:none;stroke-width:1.00157"
   id="rect1"
   width="494.51001"
   height="149.892"
   x="0"
   y="1e-06" />





<g
   id="g1"
   transform="translate(-46.400995,-27.743)"><path
     id="original-schrift"
     fill="none"
     stroke="#2456a1"
     stroke-width="4"
     d="m 513.26,82.596 c -3.381,-2.218 -7.086,-3.331 -11.115,-3.331 -4.383,0 -8.275,1.993 -11.676,5.97 -3.402,3.98 -5.1,8.845 -5.1,14.59 v 46.107 H 466.471 V 64.983 h 18.898 v 7.409 c 5.291,-5.949 12.318,-8.926 21.086,-8.926 6.447,0 11.389,0.983 14.82,2.945 z M 392.52,97.031 h 39.754 c -1.305,-11.844 -7.855,-17.767 -19.645,-17.767 -10.783,0.001 -17.488,5.924 -20.109,17.767 z m 57.146,14.204 h -57.828 c 0.35,6.45 2.566,11.469 6.65,15.05 4.084,3.579 9.576,5.365 16.48,5.365 8.617,0 15.172,-2.242 19.658,-6.728 l 7.32,14.435 c -6.648,5.395 -16.572,8.092 -29.771,8.092 -12.352,0 -22.115,-3.617 -29.299,-10.852 -7.176,-7.23 -10.762,-17.326 -10.762,-30.277 0,-12.744 3.941,-23.07 11.828,-30.98 7.887,-7.912 17.344,-11.873 28.377,-11.873 11.738,0 21.162,3.504 28.264,10.51 7.107,7.008 10.664,15.928 10.664,26.76 10e-4,2.316 -0.528,5.818 -1.581,10.498 z m -105.611,34.697 -23.813,-36.654 -9.07,9.599 v 27.056 H 292.274 V 34.828 l 18.898,-4.541 v 65.754 l 26.98,-31.058 h 22.758 l -27.365,30.685 32.949,50.264 z M 218.324,97.031 h 39.754 c -1.306,-11.844 -7.855,-17.767 -19.646,-17.767 -10.783,0.001 -17.486,5.924 -20.108,17.767 z m 57.146,14.204 h -57.829 c 0.351,6.45 2.568,11.469 6.653,15.05 4.08,3.579 9.575,5.365 16.479,5.365 8.617,0 15.172,-2.242 19.657,-6.728 l 7.322,14.435 c -6.648,5.395 -16.574,8.092 -29.771,8.092 -12.352,0 -22.117,-3.617 -29.299,-10.852 -7.177,-7.23 -10.763,-17.326 -10.763,-30.277 0,-12.744 3.941,-23.07 11.829,-30.98 7.886,-7.912 17.343,-11.873 28.375,-11.873 11.739,0 21.163,3.504 28.266,10.51 7.107,7.008 10.664,15.928 10.664,26.76 0,2.316 -0.53,5.818 -1.583,10.498 z M 161.925,145.932 V 80.475 H 151.569 V 64.983 h 29.475 v 80.948 h -19.119 z m 9.752,-112.315 c 3.018,0 5.599,1.072 7.74,3.211 2.146,2.142 3.221,4.725 3.221,7.75 0,3.021 -1.074,5.602 -3.221,7.74 -2.141,2.141 -4.722,3.211 -7.74,3.211 -3.029,0 -5.613,-1.07 -7.751,-3.211 -2.141,-2.139 -3.21,-4.719 -3.21,-7.74 0,-3.025 1.069,-5.608 3.21,-7.75 2.138,-2.139 4.722,-3.211 7.751,-3.211 z M 132.065,145.932 101.227,98.768 88.914,115.622 v 30.311 H 69.257 V 35.201 h 19.657 v 52.98 l 37.643,-52.98 h 22.373 l -34.697,48.373 41.349,62.357 h -23.517 z" /><polygon
     id="maske_für_k-teile_4_"
     fill="#ffffff"
     points="61.856,170.5 159.75,167.5 159.75,148.067 120.056,85.895 159.142,30.831 120.056,27.743 100.002,92.926 50.06,92.313 49,106.25 47,123.475 46.401,132.723 54.497,154.734 " /><path
     fill="#2456a1"
     d="m 90.003,100.809 c 6.321,-16.183 -13.812,-17.502 4.183,-11.941 81.126,44.773 2.844,70.78 137.75,65.738 57.78,-1.338 261.979,-9.299 308.975,7.504 -58.997,-0.303 -76.697,-0.965 -97.565,15.525 -2.932,-31.828 -251.659,-15.55 -389.038,-12.406 -10.77,0.246 3.231,-3.779 4.565,-17.779 26.293,18.061 97.268,8.321 31.13,-46.641 z"
     id="path1" /><rect
     id="okular_unten_4_"
     x="102.283"
     y="29.528999"
     transform="matrix(0.8078,0.5895,-0.5895,0.8078,57.7385,-53.3164)"
     fill="#2456a1"
     width="16.684"
     height="64.697998" /><path
     id="objektiv_4_"
     fill="#2456a1"
     d="m 79.965,99.554 c 3.833,-0.001 6.942,3.188 6.944,7.125 l 0.021,33.581 c 10e-4,3.938 -3.103,7.131 -6.938,7.133 l -3.469,0.002 c -3.832,0.003 -6.941,-3.188 -6.943,-7.125 l -0.02,-33.579 c -0.003,-3.938 3.103,-7.133 6.936,-7.134 z" /><path
     id="kreis_weiß_4_"
     fill="#ffffff"
     d="m 107.624,98.43 c 0,12.518 -10.583,22.666 -23.101,22.666 -12.519,0 -22.667,-10.148 -22.667,-22.666 0,-12.519 10.148,-22.667 22.667,-22.667 12.518,0 23.101,10.147 23.101,22.667 z" /><circle
     fill="#2456a1"
     cx="84.593002"
     cy="98.235001"
     r="18.334"
     id="circle1" /></g>
</svg>
