<?xml version="1.0" encoding="UTF-8" standalone="no"?>
<!-- Generator: Adobe Illustrator 14.0.0, SVG Export Plug-In . SVG Version: 6.00 Build 43363)  -->

<svg
   version="1.1"
   id="Ebene_1"
   x="0px"
   y="0px"
   width="895.20898"
   height="149.892"
   viewBox="0 0 895.20909 149.892"
   enable-background="new 0 0 566.93 226.77"
   xml:space="preserve"
   sodipodi:docname="SustainKieker-logo-no-font-information-white-background.svg"
   inkscape:version="1.4 (e7c3feb100, 2024-10-09)"
   inkscape:export-filename="SustainKieker-logo-no-font-information.svg"
   inkscape:export-xdpi="192"
   inkscape:export-ydpi="192"
   xmlns:inkscape="http://www.inkscape.org/namespaces/inkscape"
   xmlns:sodipodi="http://sodipodi.sourceforge.net/DTD/sodipodi-0.dtd"
   xmlns="http://www.w3.org/2000/svg"
   xmlns:svg="http://www.w3.org/2000/svg"><defs
   id="defs14" /><sodipodi:namedview
   id="namedview12"
   pagecolor="#ffffff"
   bordercolor="#000000"
   borderopacity="0.25"
   inkscape:showpageshadow="2"
   inkscape:pageopacity="0.0"
   inkscape:pagecheckerboard="0"
   inkscape:deskcolor="#d1d1d1"
   showgrid="false"
   inkscape:zoom="1.4142136"
   inkscape:cx="491.79275"
   inkscape:cy="21.92031"
   inkscape:window-width="2560"
   inkscape:window-height="1403"
   inkscape:window-x="0"
   inkscape:window-y="0"
   inkscape:window-maximized="1"
   inkscape:current-layer="layer4"
   showguides="false"><inkscape:grid
     type="xygrid"
     id="grid538"
     originx="-115.49996"
     originy="0"
     spacingy="1"
     spacingx="1"
     units="px"
     visible="false" /></sodipodi:namedview>
<g
   inkscape:groupmode="layer"
   id="layer4"
   inkscape:label="white background (for png)"
   style="display:inline"
   sodipodi:insensitive="true"><rect
     style="fill:#ffffff;fill-opacity:1;stroke:none;stroke-width:4"
     id="rect1714"
     width="895.20758"
     height="149.89229"
     x="0"
     y="0" /></g>






<g
   inkscape:groupmode="layer"
   id="layer3"
   inkscape:label="Sustain (w/o font)"
   style="display:inline"
   sodipodi:insensitive="true"
   transform="translate(0.48482529)"><g
     aria-label="Sustain"
     id="text174-3"
     style="font-size:120px;letter-spacing:0.09px;fill:#2456a1;stroke:#2456a1;stroke-width:4"><path
       d="M 2,113.31506 7.625,99.66272 q 9.023437,6.32812 17.753906,6.32812 13.417969,0 13.417969,-9.374995 0,-5.917969 -5.507813,-10.722657 Q 29.832031,82.904907 22.625,79.272095 14.597656,75.28772 11.726563,73.119751 2.1757813,66.029907 2.1757813,53.842407 q 0,-10.664062 7.8515627,-17.109375 7.265625,-5.976562 18.164062,-5.976562 14.882813,0 21.855469,5.566406 l -4.628906,13.125 q -8.027344,-5.742188 -16.933594,-5.742188 -4.921875,0 -7.910156,2.519532 -3.164063,2.636718 -3.164063,7.5 0,7.382812 16.347656,15.351562 14.414063,7.03125 18.222657,15.996094 1.992187,4.6875 1.992187,10.546875 0,11.718749 -9.667969,18.222659 -8.4375,5.68359 -20.625,5.68359 Q 11.667969,119.526 2,113.31506 Z"
       style="font-family:TempoIndicationsLiteTrebuchet;-inkscape-font-specification:TempoIndicationsLiteTrebuchet"
       id="path704" /><path
       d="m 107.09,118.11975 v -5.27344 q -3.28125,2.8125 -8.789062,4.62891 -5.214844,1.75781 -9.785157,1.75781 -21.855468,0 -21.855468,-23.203123 V 55.307251 H 81.30875 v 39.609375 q 0,12.070314 10.839844,12.070314 4.570312,0 8.730466,-2.22656 4.62891,-2.40235 6.21094,-6.328129 v -43.125 h 14.64844 v 62.812499 z"
       style="font-family:TempoIndicationsLiteTrebuchet;-inkscape-font-specification:TempoIndicationsLiteTrebuchet"
       id="path706" /><path
       d="m 133.78156,114.01819 5.21484,-11.66016 q 6.5625,5.21485 14.82422,5.21485 8.55469,0 8.55469,-6.09375 0,-4.335942 -4.39454,-7.324223 -1.93359,-1.289062 -8.20312,-3.925781 -16.23047,-6.738281 -16.23047,-18.867188 0,-8.671875 6.97266,-13.300781 6.03515,-3.925781 15.11718,-3.925781 9.78516,0 18.39844,4.394531 l -4.21875,11.367188 q -4.80469,-4.101563 -13.35937,-4.101563 -7.67578,0 -7.67578,6.09375 0,3.28125 5.33203,6.152344 1.28906,0.703125 7.96875,3.339844 15.52734,6.152343 15.52734,19.10156 0,9.60938 -7.55859,14.53125 -6.44532,4.21875 -16.52344,4.21875 -6.09375,0 -10.25391,-1.11328 -3.80859,-1.05469 -9.49218,-4.10156 z"
       style="font-family:TempoIndicationsLiteTrebuchet;-inkscape-font-specification:TempoIndicationsLiteTrebuchet"
       id="path708" /><path
       d="m 191.645,67.084595 h -7.26562 V 55.307251 H 191.645 V 42.533813 l 14.64844,-5.390625 V 55.307251 H 223.52 v 11.777344 h -17.22656 v 27.480468 q 0,6.093747 1.64063,8.789067 2.10937,3.51562 7.85156,3.51562 5.27344,0 9.84375,-2.87109 v 13.47656 q -5.09766,1.75781 -14.53125,1.75781 -9.55078,0 -14.58984,-5.44922 -4.86329,-5.27343 -4.86329,-14.941403 z"
       style="font-family:TempoIndicationsLiteTrebuchet;-inkscape-font-specification:TempoIndicationsLiteTrebuchet"
       id="path710" /><path
       d="m 272.00844,111.79163 q -2.16797,3.63281 -7.67578,5.68359 -4.62891,1.75781 -9.60938,1.75781 -9.84375,0 -15.58594,-4.6875 -6.15234,-5.09765 -6.15234,-14.765623 0,-12.304687 10.07813,-18.339844 8.14453,-4.863281 21.32812,-4.863281 2.57813,0 6.09375,0.878906 0,-11.074218 -14.00391,-11.074218 -8.26171,0 -13.82812,2.753906 l -3.16406,-11.367188 q 7.55859,-3.632812 17.98828,-3.632812 15.8789,0 22.14844,7.851562 5.5664,6.972657 5.5664,23.4375 v 13.417969 q 0,12.539063 5.03906,15.761723 -2.63671,4.6289 -9.14062,4.6289 -2.98828,0 -5.68359,-2.28515 -2.46094,-2.16797 -3.39844,-5.15625 z m -1.40625,-23.261723 q -3.75,-0.761719 -5.625,-0.761719 -17.34375,0 -17.34375,11.367188 0,8.437504 9.78515,8.437504 13.1836,0 13.1836,-13.183598 z"
       style="font-family:TempoIndicationsLiteTrebuchet;-inkscape-font-specification:TempoIndicationsLiteTrebuchet"
       id="path712" /><path
       d="m 312.58673,30.990845 q 3.51563,0 5.97656,2.519531 2.51953,2.460937 2.51953,5.976562 0,3.515625 -2.51953,6.035157 -2.46093,2.460937 -5.97656,2.460937 -3.51562,0 -6.03516,-2.460937 -2.46093,-2.519532 -2.46093,-6.035157 0,-3.515625 2.46093,-5.976562 2.51954,-2.519531 6.03516,-2.519531 z m -7.55859,87.070315 V 67.31897 h -8.02735 V 55.307251 h 22.85157 v 62.753909 z"
       style="font-family:TempoIndicationsLiteTrebuchet;-inkscape-font-specification:TempoIndicationsLiteTrebuchet"
       id="path714" /><path
       d="M 377.36423,118.06116 V 81.791626 q 0,-7.617188 -2.69532,-11.191406 -3.10546,-4.21875 -10.42968,-4.21875 -3.33985,0 -6.91407,1.816406 -3.57421,1.816406 -5.68359,4.511719 V 118.06116 H 336.99313 V 55.307251 h 10.54688 l 2.69531,5.859375 q 5.97656,-7.03125 17.63672,-7.03125 11.66016,0 17.98828,6.972656 6.15234,6.679688 6.15234,18.457031 v 38.496097 z"
       style="font-family:TempoIndicationsLiteTrebuchet;-inkscape-font-specification:TempoIndicationsLiteTrebuchet"
       id="path716" /></g></g><g
   inkscape:groupmode="layer"
   id="g6"
   inkscape:label="path data (edit)"
   style="display:inline"
   sodipodi:insensitive="true"><path
     id="path2"
     fill="none"
     stroke="#2456a1"
     stroke-width="4"
     d="m 867.55792,54.853 c -3.381,-2.218 -7.086,-3.331 -11.115,-3.331 -4.383,0 -8.275,1.993 -11.676,5.97 -3.402,3.98 -5.1,8.845 -5.1,14.59 v 46.107 h -18.898 V 37.24 h 18.898 v 7.409 c 5.291,-5.949 12.318,-8.926 21.086,-8.926 6.447,0 11.389,0.983 14.82,2.945 z m -120.74,14.435 h 39.754 c -1.305,-11.844 -7.855,-17.767 -19.645,-17.767 -10.783,10e-4 -17.488,5.924 -20.109,17.767 z m 57.146,14.204 h -57.828 c 0.35,6.45 2.566,11.469 6.65,15.05 4.084,3.579 9.576,5.365 16.48,5.365 8.617,0 15.172,-2.242 19.658,-6.728 l 7.32,14.435 c -6.648,5.395 -16.572,8.092 -29.771,8.092 -12.352,0 -22.115,-3.617 -29.299,-10.852 -7.176,-7.23 -10.762,-17.326 -10.762,-30.277 0,-12.744 3.941,-23.07 11.828,-30.98 7.887,-7.912 17.344,-11.873 28.377,-11.873 11.738,0 21.162,3.504 28.264,10.51 7.107,7.008 10.664,15.928 10.664,26.76 10e-4,2.316 -0.528,5.818 -1.581,10.498 z m -105.611,34.697 -23.813,-36.654 -9.07,9.599 v 27.056 h -18.898 V 7.085 l 18.898,-4.541 v 65.754 l 26.98,-31.058 h 22.758 l -27.365,30.685 32.949,50.264 z m -125.731,-48.901 h 39.754 c -1.306,-11.844 -7.855,-17.767 -19.646,-17.767 -10.783,10e-4 -17.486,5.924 -20.108,17.767 z m 57.146,14.204 h -57.829 c 0.351,6.45 2.568,11.469 6.653,15.05 4.08,3.579 9.575,5.365 16.479,5.365 8.617,0 15.172,-2.242 19.657,-6.728 l 7.322,14.435 c -6.648,5.395 -16.574,8.092 -29.771,8.092 -12.352,0 -22.117,-3.617 -29.299,-10.852 -7.177,-7.23 -10.763,-17.326 -10.763,-30.277 0,-12.744 3.941,-23.07 11.829,-30.98 7.886,-7.912 17.343,-11.873 28.375,-11.873 11.739,0 21.163,3.504 28.266,10.51 7.107,7.008 10.664,15.928 10.664,26.76 0,2.316 -0.53,5.818 -1.583,10.498 z m -113.545,34.697 V 52.732 h -10.356 V 37.24 h 29.475 v 80.948 h -19.119 z m 9.752,-112.315 c 3.018,0 5.599,1.072 7.74,3.211 2.146,2.142 3.221,4.725 3.221,7.75 0,3.021 -1.074,5.602 -3.221,7.74 -2.141,2.141 -4.722,3.211 -7.74,3.211 -3.029,0 -5.613,-1.07 -7.751,-3.211 -2.141,-2.139 -3.21,-4.719 -3.21,-7.74 0,-3.025 1.069,-5.608 3.21,-7.75 2.138,-2.139 4.722,-3.211 7.751,-3.211 z"
     style="display:inline"
     inkscape:label="original-schrift-edit"
     sodipodi:nodetypes="cscscccccscccccccccsccscscscccccccccccccccccccccccsccssscscscccccccccscscscssscc" /><polygon
     id="polygon2"
     fill="#ff00ff"
     points="159.142,30.831 120.056,27.743 100.002,92.926 50.06,92.313 49,106.25 47,123.475 46.401,132.723 54.497,154.734 61.856,170.5 159.75,167.5 159.75,148.067 120.056,85.895 "
     transform="translate(354.29792,-27.743)"
     style="display:none"
     inkscape:label="maske_für_k-teile_4_-2" /><path
     d="m 461.87109,69.265625 c 0.0304,0.470758 0.0508,0.943765 0.0508,1.421875 0,5.288409 -1.89424,10.148333 -5.01953,14.003906 43.01156,44.614584 -19.41783,51.716284 -43.73047,35.015624 -1.334,14 -15.3364,18.0253 -4.5664,17.7793 137.379,-3.144 386.10706,-19.42175 389.03906,12.40625 20.868,-16.49 38.56741,-15.82839 97.56445,-15.52539 -46.99604,-16.803 -251.19461,-8.84191 -308.97461,-7.50391 -126.50618,4.72807 -65.54879,-17.84843 -124.36328,-57.597655 z"
     style="baseline-shift:baseline;display:inline;overflow:visible;vector-effect:none;fill:#2456a1;enable-background:accumulate;stop-color:#000000;stop-opacity:1"
     id="path38"
     sodipodi:nodetypes="ssccccccss" /><path
     d="M 477.25391,3.0898438 445.46289,49 c 5.52405,1.660956 10.23487,5.328552 13.18359,10.144531 l 32.08399,-46.21875 z"
     style="baseline-shift:baseline;display:inline;overflow:visible;vector-effect:none;fill:#2456a1;enable-background:accumulate;stop-color:#000000;stop-opacity:1"
     id="path34" /><path
     d="m 423.86719,87.71875 0.01,24.80859 c 0.002,3.937 3.11136,7.128 6.94336,7.125 l 3.46875,-0.002 c 3.835,-0.002 6.94046,-3.19481 6.93946,-7.13281 l -0.0117,-19.277346 -0.0332,-0.0098 c -0.77785,0.08 -1.5656,0.121093 -2.36132,0.121093 -5.72643,0 -10.95321,-2.127178 -14.94336,-5.628906 z"
     style="baseline-shift:baseline;display:inline;overflow:visible;vector-effect:none;fill:#2456a1;enable-background:accumulate;stop-color:#000000;stop-opacity:1"
     id="path36" /><path
     id="path6"
     fill="#ffffff"
     d="m 461.92192,70.687 c 0,12.518 -10.583,22.666 -23.101,22.666 -12.519,0 -22.667,-10.148 -22.667,-22.666 0,-12.519 10.148,-22.667 22.667,-22.667 12.518,0 23.101,10.147 23.101,22.667 z"
     style="color:#000000;font-style:normal;font-variant:normal;font-weight:normal;font-stretch:normal;font-size:medium;line-height:normal;font-family:sans-serif;font-variant-ligatures:normal;font-variant-position:normal;font-variant-caps:normal;font-variant-numeric:normal;font-variant-alternates:normal;font-variant-east-asian:normal;font-feature-settings:normal;font-variation-settings:normal;text-indent:0;text-align:start;text-decoration-line:none;text-decoration-style:solid;text-decoration-color:#000000;letter-spacing:normal;word-spacing:normal;text-transform:none;writing-mode:lr-tb;direction:ltr;text-orientation:mixed;dominant-baseline:auto;baseline-shift:baseline;text-anchor:start;white-space:normal;shape-padding:0;shape-margin:0;inline-size:0;clip-rule:nonzero;display:none;overflow:visible;visibility:visible;isolation:auto;mix-blend-mode:normal;color-interpolation:sRGB;color-interpolation-filters:linearRGB;solid-color:#000000;solid-opacity:1;vector-effect:none;fill:#ffffff;fill-opacity:1;fill-rule:nonzero;stroke:none;stroke-linecap:butt;stroke-linejoin:miter;stroke-miterlimit:4;stroke-dasharray:none;stroke-dashoffset:0;stroke-opacity:1;-inkscape-stroke:none;color-rendering:auto;image-rendering:auto;shape-rendering:auto;text-rendering:auto;enable-background:accumulate;stop-color:#000000;stop-opacity:1"
     inkscape:label="kreis_weiß_4_-2"
     sodipodi:insensitive="true" /><circle
     fill="#2456a1"
     cx="438.8909"
     cy="70.492004"
     r="18.334"
     id="circle6"
     inkscape:label="circle9-2" /><path
     d="M 421.55469,5.4570312 V 56.009766 c 1.1796,-1.386298 2.52249,-2.628564 4,-3.697266 V 9.4570313 h 15.6582 v 38.6171877 0.05273 c 1.37338,0.131371 2.52053,0.388319 3.82031,0.751953 l 0.17969,-0.05469 V 5.4570312 Z"
     style="baseline-shift:baseline;display:inline;overflow:visible;vector-effect:none;fill:#2456a1;enable-background:accumulate;stop-color:#000000;stop-opacity:1"
     id="path32"
     sodipodi:nodetypes="ccccccccccc" /><path
     d="M 486.363,118.189 455.525,71.025 443.212,87.879 V 118.19 H 423.555 V 7.458 h 19.657 v 52.98 l 37.643,-52.98 h 22.373 l -34.697,48.373 41.349,62.357 h -23.517 z"
     style="display:none;fill:none;stroke:#2456a1;stroke-width:4"
     id="path1-1"
     sodipodi:insensitive="true" /><path
     id="path6-6"
     style="display:none;fill:#ffffff"
     inkscape:label="kreis_weiß_4_-2"
     d="m 438.82239,48.019985 c -12.519,0 -22.66797,10.14897 -22.66797,22.66797 0,12.518 10.14897,22.66406 22.66797,22.66406 12.518,0 23.09961,-10.14606 23.09961,-22.66406 0,-12.52 -10.58161,-22.66797 -23.09961,-22.66797 z m 0.0684,4.13867 a 18.334,18.334 0 0 1 18.33398,18.33399 18.334,18.334 0 0 1 -18.33398,18.33398 18.334,18.334 0 0 1 -18.33399,-18.33398 18.334,18.334 0 0 1 18.33399,-18.33399 z"
     sodipodi:insensitive="true" /></g></svg>
